<mxfile host="app.diagrams.net" agent="Mozilla/5.0 (Windows NT 10.0; Win64; x64) AppleWebKit/537.36 (KHTML, like Gecko) Chrome/138.0.0.0 Safari/537.36" version="28.0.4">
  <diagram name="Page-1" id="VdG0ydc967w3bB8NOWR4">
    <mxGraphModel dx="951" dy="1595" grid="1" gridSize="10" guides="1" tooltips="1" connect="1" arrows="1" fold="1" page="1" pageScale="1" pageWidth="850" pageHeight="1100" math="0" shadow="0">
      <root>
        <mxCell id="0" />
        <mxCell id="1" parent="0" />
        <mxCell id="EncBWNqlH_w9nEIL0629-1" value="Entity Relationship Model" style="text;html=1;align=center;verticalAlign=middle;whiteSpace=wrap;rounded=0;" vertex="1" parent="1">
          <mxGeometry x="40" y="20" width="160" height="20" as="geometry" />
        </mxCell>
        <mxCell id="EncBWNqlH_w9nEIL0629-2" value="data_faker" style="rounded=0;whiteSpace=wrap;html=1;" vertex="1" parent="1">
          <mxGeometry x="60" y="50" width="120" height="60" as="geometry" />
        </mxCell>
        <mxCell id="EncBWNqlH_w9nEIL0629-3" value="fake" style="rhombus;whiteSpace=wrap;html=1;" vertex="1" parent="1">
          <mxGeometry x="240" y="55" width="110" height="50" as="geometry" />
        </mxCell>
        <mxCell id="EncBWNqlH_w9nEIL0629-5" value="data_set" style="rounded=0;whiteSpace=wrap;html=1;" vertex="1" parent="1">
          <mxGeometry x="390" y="50" width="120" height="60" as="geometry" />
        </mxCell>
        <mxCell id="EncBWNqlH_w9nEIL0629-6" value="name" style="ellipse;whiteSpace=wrap;html=1;" vertex="1" parent="1">
          <mxGeometry x="650" width="60" height="40" as="geometry" />
        </mxCell>
        <mxCell id="EncBWNqlH_w9nEIL0629-7" value="start_date" style="ellipse;whiteSpace=wrap;html=1;" vertex="1" parent="1">
          <mxGeometry x="650" y="50" width="60" height="40" as="geometry" />
        </mxCell>
        <mxCell id="EncBWNqlH_w9nEIL0629-8" value="end_date" style="ellipse;whiteSpace=wrap;html=1;" vertex="1" parent="1">
          <mxGeometry x="650" y="100" width="60" height="40" as="geometry" />
        </mxCell>
        <mxCell id="EncBWNqlH_w9nEIL0629-10" value="granuality" style="ellipse;whiteSpace=wrap;html=1;" vertex="1" parent="1">
          <mxGeometry x="650" y="150" width="60" height="40" as="geometry" />
        </mxCell>
        <mxCell id="EncBWNqlH_w9nEIL0629-12" value="date" style="ellipse;whiteSpace=wrap;html=1;" vertex="1" parent="1">
          <mxGeometry x="490" y="190" width="110" height="50" as="geometry" />
        </mxCell>
        <mxCell id="EncBWNqlH_w9nEIL0629-13" value="sales" style="ellipse;whiteSpace=wrap;html=1;" vertex="1" parent="1">
          <mxGeometry x="490" y="250" width="110" height="50" as="geometry" />
        </mxCell>
        <mxCell id="EncBWNqlH_w9nEIL0629-14" value="add_to_carts" style="ellipse;whiteSpace=wrap;html=1;" vertex="1" parent="1">
          <mxGeometry x="490" y="310" width="110" height="50" as="geometry" />
        </mxCell>
        <mxCell id="EncBWNqlH_w9nEIL0629-15" value="website_visitors" style="ellipse;whiteSpace=wrap;html=1;" vertex="1" parent="1">
          <mxGeometry x="490" y="370" width="110" height="50" as="geometry" />
        </mxCell>
        <mxCell id="EncBWNqlH_w9nEIL0629-16" value="markteting_expense" style="ellipse;whiteSpace=wrap;html=1;" vertex="1" parent="1">
          <mxGeometry x="490" y="430" width="110" height="50" as="geometry" />
        </mxCell>
        <mxCell id="EncBWNqlH_w9nEIL0629-17" value="" style="endArrow=none;html=1;rounded=0;entryX=0;entryY=0.5;entryDx=0;entryDy=0;" edge="1" parent="1" target="EncBWNqlH_w9nEIL0629-3">
          <mxGeometry width="50" height="50" relative="1" as="geometry">
            <mxPoint x="180" y="80" as="sourcePoint" />
            <mxPoint x="230" y="30" as="targetPoint" />
          </mxGeometry>
        </mxCell>
        <mxCell id="EncBWNqlH_w9nEIL0629-19" value="" style="endArrow=none;html=1;rounded=0;" edge="1" parent="1">
          <mxGeometry width="50" height="50" relative="1" as="geometry">
            <mxPoint x="350" y="79.66" as="sourcePoint" />
            <mxPoint x="390" y="80" as="targetPoint" />
          </mxGeometry>
        </mxCell>
        <mxCell id="EncBWNqlH_w9nEIL0629-20" value="" style="endArrow=none;html=1;rounded=0;" edge="1" parent="1">
          <mxGeometry width="50" height="50" relative="1" as="geometry">
            <mxPoint x="510" y="79.66" as="sourcePoint" />
            <mxPoint x="540" y="80" as="targetPoint" />
          </mxGeometry>
        </mxCell>
        <mxCell id="EncBWNqlH_w9nEIL0629-21" value="0" style="text;html=1;align=center;verticalAlign=middle;whiteSpace=wrap;rounded=0;" vertex="1" parent="1">
          <mxGeometry x="160" y="75" width="60" height="30" as="geometry" />
        </mxCell>
        <mxCell id="EncBWNqlH_w9nEIL0629-22" value="1" style="text;html=1;align=center;verticalAlign=middle;whiteSpace=wrap;rounded=0;" vertex="1" parent="1">
          <mxGeometry x="350" y="75" width="60" height="30" as="geometry" />
        </mxCell>
        <mxCell id="EncBWNqlH_w9nEIL0629-23" value="" style="endArrow=none;html=1;rounded=0;entryX=0.5;entryY=1;entryDx=0;entryDy=0;exitX=0.5;exitY=0;exitDx=0;exitDy=0;" edge="1" parent="1" source="EncBWNqlH_w9nEIL0629-27" target="EncBWNqlH_w9nEIL0629-5">
          <mxGeometry width="50" height="50" relative="1" as="geometry">
            <mxPoint x="450" y="140" as="sourcePoint" />
            <mxPoint x="500" y="90" as="targetPoint" />
          </mxGeometry>
        </mxCell>
        <mxCell id="EncBWNqlH_w9nEIL0629-25" value="" style="endArrow=none;html=1;rounded=0;entryX=0.5;entryY=1;entryDx=0;entryDy=0;" edge="1" parent="1">
          <mxGeometry width="50" height="50" relative="1" as="geometry">
            <mxPoint x="450" y="460" as="sourcePoint" />
            <mxPoint x="450" y="190" as="targetPoint" />
          </mxGeometry>
        </mxCell>
        <mxCell id="EncBWNqlH_w9nEIL0629-27" value="data" style="rounded=0;whiteSpace=wrap;html=1;" vertex="1" parent="1">
          <mxGeometry x="410" y="150" width="80" height="40" as="geometry" />
        </mxCell>
        <mxCell id="EncBWNqlH_w9nEIL0629-28" value="parameters" style="rounded=0;whiteSpace=wrap;html=1;" vertex="1" parent="1">
          <mxGeometry x="530" y="60" width="80" height="40" as="geometry" />
        </mxCell>
        <mxCell id="EncBWNqlH_w9nEIL0629-32" value="" style="endArrow=none;html=1;rounded=0;entryX=0;entryY=0.5;entryDx=0;entryDy=0;" edge="1" parent="1" target="EncBWNqlH_w9nEIL0629-12">
          <mxGeometry width="50" height="50" relative="1" as="geometry">
            <mxPoint x="450" y="214.66" as="sourcePoint" />
            <mxPoint x="510" y="214.66" as="targetPoint" />
          </mxGeometry>
        </mxCell>
        <mxCell id="EncBWNqlH_w9nEIL0629-33" value="" style="endArrow=none;html=1;rounded=0;entryX=0;entryY=0.5;entryDx=0;entryDy=0;" edge="1" parent="1">
          <mxGeometry width="50" height="50" relative="1" as="geometry">
            <mxPoint x="450" y="274.65999999999997" as="sourcePoint" />
            <mxPoint x="490" y="275" as="targetPoint" />
          </mxGeometry>
        </mxCell>
        <mxCell id="EncBWNqlH_w9nEIL0629-34" value="" style="endArrow=none;html=1;rounded=0;entryX=0;entryY=0.5;entryDx=0;entryDy=0;" edge="1" parent="1">
          <mxGeometry width="50" height="50" relative="1" as="geometry">
            <mxPoint x="450" y="334.65999999999997" as="sourcePoint" />
            <mxPoint x="490" y="335" as="targetPoint" />
          </mxGeometry>
        </mxCell>
        <mxCell id="EncBWNqlH_w9nEIL0629-35" value="" style="endArrow=none;html=1;rounded=0;entryX=0;entryY=0.5;entryDx=0;entryDy=0;" edge="1" parent="1">
          <mxGeometry width="50" height="50" relative="1" as="geometry">
            <mxPoint x="450" y="394.65999999999997" as="sourcePoint" />
            <mxPoint x="490" y="395" as="targetPoint" />
          </mxGeometry>
        </mxCell>
        <mxCell id="EncBWNqlH_w9nEIL0629-36" value="" style="endArrow=none;html=1;rounded=0;entryX=0;entryY=0.5;entryDx=0;entryDy=0;" edge="1" parent="1">
          <mxGeometry width="50" height="50" relative="1" as="geometry">
            <mxPoint x="450" y="459.99999999999994" as="sourcePoint" />
            <mxPoint x="490" y="460.34" as="targetPoint" />
          </mxGeometry>
        </mxCell>
        <mxCell id="EncBWNqlH_w9nEIL0629-37" value="" style="endArrow=none;html=1;rounded=0;" edge="1" parent="1">
          <mxGeometry width="50" height="50" relative="1" as="geometry">
            <mxPoint x="640" y="170" as="sourcePoint" />
            <mxPoint x="640" y="20" as="targetPoint" />
          </mxGeometry>
        </mxCell>
        <mxCell id="EncBWNqlH_w9nEIL0629-38" value="" style="endArrow=none;html=1;rounded=0;" edge="1" parent="1">
          <mxGeometry width="50" height="50" relative="1" as="geometry">
            <mxPoint x="610" y="80" as="sourcePoint" />
            <mxPoint x="640" y="80" as="targetPoint" />
          </mxGeometry>
        </mxCell>
        <mxCell id="EncBWNqlH_w9nEIL0629-39" value="" style="endArrow=none;html=1;rounded=0;entryX=0;entryY=0.5;entryDx=0;entryDy=0;" edge="1" parent="1" target="EncBWNqlH_w9nEIL0629-6">
          <mxGeometry width="50" height="50" relative="1" as="geometry">
            <mxPoint x="640" y="20" as="sourcePoint" />
            <mxPoint x="670" y="20" as="targetPoint" />
          </mxGeometry>
        </mxCell>
        <mxCell id="EncBWNqlH_w9nEIL0629-40" value="" style="endArrow=none;html=1;rounded=0;entryX=0;entryY=0.5;entryDx=0;entryDy=0;" edge="1" parent="1">
          <mxGeometry width="50" height="50" relative="1" as="geometry">
            <mxPoint x="640" y="69.89" as="sourcePoint" />
            <mxPoint x="650" y="69.89" as="targetPoint" />
            <Array as="points">
              <mxPoint x="640" y="69.89" />
            </Array>
          </mxGeometry>
        </mxCell>
        <mxCell id="EncBWNqlH_w9nEIL0629-41" value="" style="endArrow=none;html=1;rounded=0;entryX=0;entryY=0.5;entryDx=0;entryDy=0;" edge="1" parent="1">
          <mxGeometry width="50" height="50" relative="1" as="geometry">
            <mxPoint x="640" y="119.89" as="sourcePoint" />
            <mxPoint x="650" y="119.89" as="targetPoint" />
          </mxGeometry>
        </mxCell>
        <mxCell id="EncBWNqlH_w9nEIL0629-42" value="" style="endArrow=none;html=1;rounded=0;entryX=0;entryY=0.5;entryDx=0;entryDy=0;" edge="1" parent="1">
          <mxGeometry width="50" height="50" relative="1" as="geometry">
            <mxPoint x="640" y="169.89" as="sourcePoint" />
            <mxPoint x="650" y="169.89" as="targetPoint" />
          </mxGeometry>
        </mxCell>
        <mxCell id="EncBWNqlH_w9nEIL0629-43" value="1" style="text;html=1;align=center;verticalAlign=middle;whiteSpace=wrap;rounded=0;" vertex="1" parent="1">
          <mxGeometry x="430" y="105" width="60" height="30" as="geometry" />
        </mxCell>
        <mxCell id="EncBWNqlH_w9nEIL0629-44" value="1" style="text;html=1;align=center;verticalAlign=middle;whiteSpace=wrap;rounded=0;" vertex="1" parent="1">
          <mxGeometry x="430" y="127" width="60" height="30" as="geometry" />
        </mxCell>
        <mxCell id="EncBWNqlH_w9nEIL0629-45" value="1" style="text;html=1;align=center;verticalAlign=middle;whiteSpace=wrap;rounded=0;" vertex="1" parent="1">
          <mxGeometry x="490" y="75" width="60" height="30" as="geometry" />
        </mxCell>
        <mxCell id="EncBWNqlH_w9nEIL0629-46" value="1" style="text;html=1;align=center;verticalAlign=middle;whiteSpace=wrap;rounded=0;" vertex="1" parent="1">
          <mxGeometry x="490" y="55" width="60" height="30" as="geometry" />
        </mxCell>
        <mxCell id="EncBWNqlH_w9nEIL0629-47" value="1" style="text;html=1;align=center;verticalAlign=middle;whiteSpace=wrap;rounded=0;" vertex="1" parent="1">
          <mxGeometry x="586" y="76" width="60" height="30" as="geometry" />
        </mxCell>
        <mxCell id="EncBWNqlH_w9nEIL0629-48" value="1" style="text;html=1;align=center;verticalAlign=middle;whiteSpace=wrap;rounded=0;" vertex="1" parent="1">
          <mxGeometry x="616" y="-2" width="60" height="30" as="geometry" />
        </mxCell>
        <mxCell id="EncBWNqlH_w9nEIL0629-49" value="1" style="text;html=1;align=center;verticalAlign=middle;whiteSpace=wrap;rounded=0;" vertex="1" parent="1">
          <mxGeometry x="616" y="46" width="60" height="30" as="geometry" />
        </mxCell>
        <mxCell id="EncBWNqlH_w9nEIL0629-50" value="1" style="text;html=1;align=center;verticalAlign=middle;whiteSpace=wrap;rounded=0;" vertex="1" parent="1">
          <mxGeometry x="616" y="97" width="60" height="30" as="geometry" />
        </mxCell>
        <mxCell id="EncBWNqlH_w9nEIL0629-51" value="1" style="text;html=1;align=center;verticalAlign=middle;whiteSpace=wrap;rounded=0;" vertex="1" parent="1">
          <mxGeometry x="616" y="147" width="60" height="30" as="geometry" />
        </mxCell>
        <mxCell id="EncBWNqlH_w9nEIL0629-52" value="1" style="text;html=1;align=center;verticalAlign=middle;whiteSpace=wrap;rounded=0;" vertex="1" parent="1">
          <mxGeometry x="427" y="193" width="60" height="30" as="geometry" />
        </mxCell>
        <mxCell id="EncBWNqlH_w9nEIL0629-53" value="1" style="text;html=1;align=center;verticalAlign=middle;whiteSpace=wrap;rounded=0;" vertex="1" parent="1">
          <mxGeometry x="455" y="193" width="60" height="30" as="geometry" />
        </mxCell>
        <mxCell id="EncBWNqlH_w9nEIL0629-54" value="1" style="text;html=1;align=center;verticalAlign=middle;whiteSpace=wrap;rounded=0;" vertex="1" parent="1">
          <mxGeometry x="427" y="250" width="60" height="30" as="geometry" />
        </mxCell>
        <mxCell id="EncBWNqlH_w9nEIL0629-55" value="1" style="text;html=1;align=center;verticalAlign=middle;whiteSpace=wrap;rounded=0;" vertex="1" parent="1">
          <mxGeometry x="455" y="250" width="60" height="30" as="geometry" />
        </mxCell>
        <mxCell id="EncBWNqlH_w9nEIL0629-56" value="1" style="text;html=1;align=center;verticalAlign=middle;whiteSpace=wrap;rounded=0;" vertex="1" parent="1">
          <mxGeometry x="427" y="310" width="60" height="30" as="geometry" />
        </mxCell>
        <mxCell id="EncBWNqlH_w9nEIL0629-57" value="1" style="text;html=1;align=center;verticalAlign=middle;whiteSpace=wrap;rounded=0;" vertex="1" parent="1">
          <mxGeometry x="455" y="310" width="60" height="30" as="geometry" />
        </mxCell>
        <mxCell id="EncBWNqlH_w9nEIL0629-58" value="1" style="text;html=1;align=center;verticalAlign=middle;whiteSpace=wrap;rounded=0;" vertex="1" parent="1">
          <mxGeometry x="427" y="370" width="60" height="30" as="geometry" />
        </mxCell>
        <mxCell id="EncBWNqlH_w9nEIL0629-59" value="1" style="text;html=1;align=center;verticalAlign=middle;whiteSpace=wrap;rounded=0;" vertex="1" parent="1">
          <mxGeometry x="455" y="370" width="60" height="30" as="geometry" />
        </mxCell>
        <mxCell id="EncBWNqlH_w9nEIL0629-60" value="0" style="text;html=1;align=center;verticalAlign=middle;whiteSpace=wrap;rounded=0;" vertex="1" parent="1">
          <mxGeometry x="427" y="430" width="60" height="30" as="geometry" />
        </mxCell>
        <mxCell id="EncBWNqlH_w9nEIL0629-61" value="1" style="text;html=1;align=center;verticalAlign=middle;whiteSpace=wrap;rounded=0;" vertex="1" parent="1">
          <mxGeometry x="455" y="430" width="60" height="30" as="geometry" />
        </mxCell>
        <mxCell id="EncBWNqlH_w9nEIL0629-62" value="Text" style="text;html=1;align=center;verticalAlign=middle;whiteSpace=wrap;rounded=0;" vertex="1" parent="1">
          <mxGeometry x="50" y="-200" width="60" height="30" as="geometry" />
        </mxCell>
      </root>
    </mxGraphModel>
  </diagram>
</mxfile>
